<?xml version="1.0" encoding="UTF-8"?>
<svg width="41px" height="40px" viewBox="0 0 41 40" version="1.1" xmlns="http://www.w3.org/2000/svg" xmlns:xlink="http://www.w3.org/1999/xlink">
    <!-- Generator: Sketch 3.7.2 (28276) - http://www.bohemiancoding.com/sketch -->
    <title>Group</title>
    <desc>Created with Sketch.</desc>
    <defs></defs>
    <g id="Page-1" stroke="none" stroke-width="1" fill="none" fill-rule="evenodd">
        <g id="Group">
            <path d="M20,37 C29.3888407,37 37,29.3888407 37,20 C37,10.6111593 29.3888407,3 20,3 C10.6111593,3 3,10.6111593 3,20 C3,29.3888407 10.6111593,37 20,37 Z M20.0605469,26.0292969 L26.3320312,11.7851562 L31.6132812,11.7851562 L31.6132812,12.3691406 L30.9785156,12.3691406 C30.1321572,12.3691406 29.5778008,12.4389641 29.3154297,12.5786133 C29.0530586,12.7182624 28.8774419,12.9785137 28.7885742,13.359375 C28.6997066,13.7402363 28.6552734,14.6458262 28.6552734,16.0761719 L28.6552734,24.5185547 C28.6552734,25.8727281 28.6891273,26.7592752 28.7568359,27.1782227 C28.8245446,27.5971701 28.9959296,27.9082021 29.2709961,28.1113281 C29.5460626,28.3144541 30.0729128,28.4160156 30.8515625,28.4160156 L31.6132812,28.4160156 L31.6132812,29 L23.3867188,29 L23.3867188,28.4160156 L23.9960938,28.4160156 C24.723962,28.4160156 25.2296535,28.3229176 25.5131836,28.1367188 C25.7967137,27.9505199 25.978678,27.6606465 26.059082,27.2670898 C26.1394861,26.8735332 26.1796875,25.957364 26.1796875,24.5185547 L26.1796875,13.5625 L19.3623047,29 L18.765625,29 L11.8974609,13.5625 L11.8974609,23.6425781 C11.8974609,25.0221423 11.9397782,25.961586 12.0244141,26.4609375 C12.1090499,26.960289 12.3714171,27.3982729 12.8115234,27.7749023 C13.2516298,28.1515318 13.8694622,28.3652341 14.6650391,28.4160156 L14.6650391,29 L8.5078125,29 L8.5078125,28.4160156 C9.24414431,28.3736977 9.84293389,28.1726906 10.3041992,27.8129883 C10.7654645,27.453286 11.0468745,27.0110703 11.1484375,26.4863281 C11.2500005,25.9615859 11.3007812,24.9882884 11.3007812,23.5664062 L11.3007812,16.0761719 C11.3007812,14.7050713 11.2605798,13.82064 11.1801758,13.4228516 C11.0997717,13.0250631 10.9305026,12.7500008 10.6723633,12.5976562 C10.414224,12.4453117 9.84928821,12.3691406 8.97753906,12.3691406 L8.5078125,12.3691406 L8.5078125,11.7851562 L13.7509766,11.7851562 L20.0605469,26.0292969 Z" id="Combined-Shape" fill="#82878C"></path>
            <path d="M0.5,0.5 L40.0031662,40.0031662" id="Line" stroke="#979797" stroke-linecap="square" opacity="0.0155683877"></path>
        </g>
    </g>
</svg>