<?xml version="1.0" encoding="utf-8"?>
<!-- Generator: Adobe Illustrator 17.0.0, SVG Export Plug-In . SVG Version: 6.00 Build 0)  -->
<!DOCTYPE svg PUBLIC "-//W3C//DTD SVG 1.1 Basic//EN" "http://www.w3.org/Graphics/SVG/1.1/DTD/svg11-basic.dtd">
<svg version="1.1" baseProfile="basic" id="图层_1"
	 xmlns="http://www.w3.org/2000/svg" xmlns:xlink="http://www.w3.org/1999/xlink" x="0px" y="0px" width="34px" height="34px"
	 viewBox="0 0 34 34" xml:space="preserve">
<style type="text/css">
	.st0{fill:#D0011B;}
	.st1{fill:#FFFFFF;}
</style>
<g id="Page-1">
	<g id="Oval-1-_x2B_-M">
		<circle id="Oval-1" class="st0" cx="17" cy="17" r="17"/>
		<g>
			<path class="st1" d="M17.061,23.029l6.271-14.244h5.281v0.584h-0.635c-0.846,0-1.4,0.07-1.663,0.209
				c-0.263,0.141-0.438,0.4-0.526,0.781c-0.09,0.381-0.134,1.286-0.134,2.717v8.442c0,1.354,0.034,2.241,0.102,2.659
				c0.067,0.42,0.239,0.73,0.515,0.934c0.274,0.203,0.801,0.305,1.58,0.305h0.762V26h-8.227v-0.584h0.609
				c0.729,0,1.233-0.093,1.518-0.279c0.283-0.187,0.465-0.477,0.545-0.869c0.081-0.395,0.121-1.311,0.121-2.749V10.562L16.362,26
				h-0.597L8.897,10.562v10.08c0,1.38,0.042,2.319,0.127,2.818s0.347,0.938,0.787,1.314c0.44,0.376,1.058,0.59,1.854,0.641V26H5.508
				v-0.584c0.736-0.042,1.335-0.243,1.796-0.604c0.461-0.359,0.743-0.802,0.844-1.326s0.152-1.498,0.152-2.92v-7.49
				c0-1.371-0.04-2.256-0.121-2.653S7.931,9.75,7.672,9.598S6.849,9.369,5.978,9.369h-0.47V8.785h5.243L17.061,23.029z"/>
		</g>
	</g>
</g>
</svg>
